<svg id="Layer_1" enable-background="new 0 0 512 512" height="512" viewBox="0 0 512 512" width="512" xmlns="http://www.w3.org/2000/svg"><path d="m374.319 501.751c-9.483 0-17.171-7.688-17.171-17.171v-101.355c0-9.483 7.687-17.171 17.171-17.171 9.483 0 17.17 7.688 17.17 17.171v101.355c.001 9.483-7.687 17.171-17.17 17.171z" fill="#73c8f0"/><path d="m439.074 418.062h-145.816c-13.04 0-23.61-10.571-23.61-23.61s10.57-23.61 23.61-23.61h127.941l44.461-157.751c3.537-12.551 16.58-19.856 29.129-16.32 12.55 3.537 19.857 16.579 16.32 29.129l-49.31 174.956c-2.869 10.177-12.152 17.206-22.725 17.206z" fill="#41378c"/><path d="m374.319 315.564-45.225 8.499-55.053 8.144c-9.947 2.568-17.326 10.937-18.628 21.128l-16.554 129.555c-1.921 15.033 9.796 28.292 24.936 28.292 12.449 0 23.254-9.254 24.873-21.928l14.398-112.68 93.328-5.214c16.714-.934 30.559-13.306 33.359-29.81z" fill="#748488"/><path d="m422.494 180.736-41.94-5.17c-16.288-1.541-31.149 9.739-33.854 25.874l-17.606 122.623 100.66 17.487 21.129-124.532c2.882-17.147-8.88-34.437-28.389-36.282z" fill="#ffda52"/><path d="m456.578 499.176c-11.342-18.069-43.884-41.178-82.259-41.178s-70.917 23.109-82.259 41.178c-3.272 5.212.507 11.986 6.661 11.986h151.196c6.154 0 9.933-6.774 6.661-11.986z" fill="#afe6ff"/><ellipse cx="414.448" cy="117.771" fill="#ba6746" rx="46.181" ry="46.181" transform="matrix(.978 -.21 .21 .978 -15.497 89.755)"/><path d="m252.014 295.903c-.697-11.534 8.088-21.45 19.622-22.147l74.538-4.506 17.453-26.273 27.197-.033 9.301 20.715-24.86 37.424c-3.631 5.466-9.615 8.912-16.166 9.307l-84.939 5.134c-11.503.698-21.447-8.057-22.146-19.621z" fill="#ba6746"/><path d="m421.485 193.692c-9.626-6.394-22.611-3.774-29.005 5.851l-28.853 43.434 36.498 20.682 27.211-40.962c6.394-9.625 3.774-22.61-5.851-29.005z" fill="#f2c41b"/><path d="m340.149 159.329c-.653.1-1.317.17-1.99.208l-76.661 4.383c-2.82.162-5.644-.251-8.301-1.212l-23.972-8.674-9.101-26.673 24.627-12.144 18.636 6.743 72.386-4.139c11.519-.659 21.392 8.146 22.051 19.665.619 10.847-7.149 20.233-17.675 21.843z" fill="#ffa98c"/><path d="m244.751 115.217-65.57-23.726c-10.852-3.926-22.828 1.687-26.754 12.537s1.687 22.828 12.536 26.754l64.261 23.252z" fill="#4699f2"/><ellipse cx="254.517" cy="46.941" fill="#ffb69e" rx="46.112" ry="46.112" transform="matrix(.791 -.612 .612 .791 24.436 165.453)"/><path d="m164.121 510.904c-13.695-2.036-23.147-14.789-21.111-28.484l17.209-115.748-27.655-101.374c-3.644-13.358 4.23-27.14 17.588-30.784 13.358-3.643 27.14 4.231 30.784 17.588l29.04 106.453c.913 3.349 1.122 6.851.611 10.285l-17.983 120.955c-2.033 13.675-14.771 23.148-28.483 21.109z" fill="#414b82"/><path d="m18.02 510.163c-13.286-3.897-20.897-17.827-17-31.113l61.838-210.625 35.977-33.783s20.897 17.827 17 31.113l-66.702 227.408c-3.896 13.284-17.824 20.897-31.113 17z" fill="#5f6e9b"/><path d="m217.925 93.722-19.298-8.157c-35.675-15.079-76.687 3.527-88.815 40.338l-46.954 142.522 85.83 18.821c17.871 3.919 35.858-6.106 41.925-23.366l45.42-129.218c5.725-16.288-2.206-34.219-18.108-40.94z" fill="#64afff"/><path d="m413.419 143.662-22.348-22.348c-2.659-2.659-6.969-2.659-9.628 0l-12.866 12.866c-2.659 2.659-2.659 6.969 0 9.628l22.348 22.348c2.659 2.659 6.969 2.659 9.628 0l12.866-12.866c2.658-2.659 2.658-6.97 0-9.628z" fill="#afe6ff"/><path d="m355.797 189.363c-2.669 0-5.337-1.018-7.373-3.054-4.072-4.072-4.072-10.674 0-14.746l26.635-26.636c4.073-4.072 10.674-4.073 14.747-.001 4.072 4.072 4.072 10.674 0 14.746l-26.635 26.636c-2.037 2.036-4.705 3.055-7.374 3.055z" fill="#afe6ff"/><path d="m346.754 203.34c-.358-.029-.717-.067-1.077-.114l-88.819-11.74c-3.419-.452-6.673-1.743-9.471-3.758l-26.039-18.75-1.225-27.107 26.656-6.07 20.761 14.949 83.611 11.051c11.439 1.512 19.487 12.011 17.975 23.45-1.465 11.078-11.359 18.976-22.372 18.089z" fill="#ffb69e"/><path d="m172.244 133.621 49.104 35.358 25.431-33.177-50.119-36.089c-9.366-6.743-22.42-4.617-29.162 4.746s-4.617 22.419 4.746 29.162z" fill="#4699f2"/></svg>